<?xml version="1.0" encoding="UTF-8" standalone="no"?>
<svg id="svg9266" xmlns:rdf="http://www.w3.org/1999/02/22-rdf-syntax-ns#" xmlns="http://www.w3.org/2000/svg" sodipodi:docname="Info-icon.svg" xmlns:sodipodi="http://inkscape.sourceforge.net/DTD/sodipodi-0.dtd" height="100" sodipodi:version="0.32" width="100" version="1.0" xmlns:cc="http://web.resource.org/cc/" xmlns:xlink="http://www.w3.org/1999/xlink" viewBox="0 2 130 130">
 <sodipodi:namedview id="base" bordercolor="#666666" pagecolor="#ffffff" borderopacity="1.0"/>
 <g id="layer1">
  <path id="path9274" sodipodi:rx="57" sodipodi:ry="57" style="color:#1a1a1a" sodipodi:type="arc" d="m-12-90a57 57 0 1 1 -114 0 57 57 0 1 1 114 0z" transform="matrix(.87719 0 0 .87719 110.53 128.95)" sodipodi:cy="-90" sodipodi:cx="-69" fill="url(#radialGradient9290)"/>
  <path id="text9292" d="m40.758 20.087c0-2.638 0.903-4.877 2.708-6.716 1.839-1.84 4.061-2.76 6.664-2.76 2.499 0 4.669 0.937 6.509 2.812 1.839 1.839 2.759 4.061 2.759 6.664 0 2.604-0.92 4.86-2.759 6.769-1.805 1.875-3.975 2.812-6.509 2.812-2.603 0-4.825-0.92-6.664-2.76-1.805-1.874-2.708-4.148-2.708-6.821m18.224 59.93c0 1.492 0.243 2.516 0.729 3.072 0.485 0.52 1.457 0.816 2.915 0.885l4.218 0.104v5.311h-32.907v-5.311l4.634-0.104c1.423-0.069 2.378-0.382 2.864-0.937 0.521-0.556 0.781-1.562 0.781-3.02v-31.917c0-1.701-0.382-2.829-1.146-3.385-0.763-0.555-2.325-0.833-4.686-0.833-0.312 0-0.833 0.017-1.562 0.052-0.694 0.035-1.249 0.052-1.666 0.052v-5.259l25.826-1.145v42.435" style="fill:#1a1a1a;stroke:#1a1a1a;"/>
 </g>
</svg>
