<?xml version="1.0" standalone="no"?>
<!DOCTYPE svg PUBLIC "-//W3C//DTD SVG 20010904//EN" "http://www.w3.org/TR/2001/REC-SVG-20010904/DTD/svg10.dtd">
<svg version="1.0" xmlns="http://www.w3.org/2000/svg" width="100%" height="100%" viewBox="-15 20 230.000000 300.000000" preserveAspectRatio="none">
	<g transform="translate(0.000000,300.000000) scale(0.100000,-0.100000)"	fill="#19005a" stroke="none">
		<path d="M792 2177 l-212 -212 95 -95 95 -95 118 118 117 117 118 -117 117 -118 95 95 95 95 -213 213 -212 212 -213 -213z"/>
		<path d="M322 1687 l-212 -212 213 -213 212 -212 95 95 95 95 -118 118 -117 117 117 118 118 117 -95 95 -95 95 -213 -213z"/>
		<path d="M792 1687 l-212 -212 185 -185 185 -185 0 -397 0 -398 55 0 55 0 0 397 0 398 185 185 185 185 -213 213 -212 212 -213 -213z"/>
		<path d="M1390 1805 l-95 -95 118 -117 117 -118 -117 -117 -118 -118 95 -95 95 -95 213 213 212 212 -213 213 -212 212 -95 -95z"/>
	</g>
</svg>
